<svg xmlns="http://www.w3.org/2000/svg" xmlns:xlink="http://www.w3.org/1999/xlink" viewBox="0 0 240.27 48.2"><defs><style>.cls-1{fill:none;}.cls-2{fill:#f0f0f0;}.cls-3{fill:#ffbf00;}.cls-4{clip-path:url(#clip-path);}.cls-5{fill:#424242;}</style><clipPath id="clip-path"><circle class="cls-1" cx="24.1" cy="24.1" r="18.4"/></clipPath></defs><title>kintonehelp_ja</title><g id="レイヤー_2" data-name="レイヤー 2"><g id="レイヤー_1-2" data-name="レイヤー 1"><circle class="cls-2" cx="24.1" cy="24.1" r="24.1"/><circle class="cls-3" cx="24.1" cy="24.1" r="18.4"/><g class="cls-4"><path d="M18.6,11.1,25,14.9a10.64,10.64,0,0,1,4.6-3.8,7.54,7.54,0,0,1,5.3.4,7.78,7.78,0,0,1,4,3.5,4.88,4.88,0,0,1,.1,4.4,5.13,5.13,0,0,1-2.2,2.4,24.5,24.5,0,0,1-5.3,1.7c-2.9.8-5,1.7-6.3,2.9a14.08,14.08,0,0,0-3.4,4.8,16.54,16.54,0,0,1-.8,1.7l6.7,2.9a13,13,0,0,1,2.3-4A10.5,10.5,0,0,1,34.2,30c4-1.2,6.7-2.3,8.3-3.4V9.4A11.51,11.51,0,0,0,40.8,8s-14.3-3.6-16-2.7A13.31,13.31,0,0,0,18.6,11.1Z"/></g><g class="cls-4"><polygon points="20.1 35.5 17 42.7 25.7 42.7 27.4 38.7 20.1 35.5"/></g><path class="cls-5" d="M65.6,13.8V25.3L71,19.7h5l-5.9,5.7,6.5,9.8H71.4l-4.3-6.9-1.7,1.6v5.3H61.1V13.8Zm12.7,3.6V13.9h4.3v3.5Zm4.3,2.4V35.3H78.3V19.8Zm7.4,0V22h.1a4.51,4.51,0,0,1,2.1-2,6.16,6.16,0,0,1,2.6-.6,7.39,7.39,0,0,1,2.8.5,3.71,3.71,0,0,1,1.7,1.3,6.11,6.11,0,0,1,.9,2,10.9,10.9,0,0,1,.3,2.6v9.5H96.2V26.5a5.7,5.7,0,0,0-.6-2.9,2.34,2.34,0,0,0-2.1-.9,2.8,2.8,0,0,0-2.5,1,5.85,5.85,0,0,0-.8,3.4v8.1H85.9V19.8Zm22.2,0v2.9h-3.1v7.7c0,.7.1,1.2.4,1.4a2.11,2.11,0,0,0,1.4.4h.7a1.27,1.27,0,0,0,.6-.1v3.3a4.87,4.87,0,0,1-1.2.1h-1.3a11.48,11.48,0,0,1-1.9-.1,7.49,7.49,0,0,1-1.6-.5,3.84,3.84,0,0,1-1.1-1.1,3.58,3.58,0,0,1-.4-1.9V22.8h-2.6V19.9h2.6V15.3H109v4.6h3.2Zm6,9.5a4.42,4.42,0,0,0,.6,1.6A3.18,3.18,0,0,0,120,32a4.25,4.25,0,0,0,3.6,0,4.26,4.26,0,0,0,1.2-1.1,4.42,4.42,0,0,0,.6-1.6,11,11,0,0,0,.2-1.8,11,11,0,0,0-.2-1.8,4.42,4.42,0,0,0-.6-1.6,3.18,3.18,0,0,0-1.2-1.1,4.25,4.25,0,0,0-3.6,0,4.26,4.26,0,0,0-1.2,1.1,4.42,4.42,0,0,0-.6,1.6,11,11,0,0,0-.2,1.8c.1.6.1,1.3.2,1.8Zm-3.8-5.1a7.6,7.6,0,0,1,1.6-2.6,6,6,0,0,1,2.5-1.6,9.38,9.38,0,0,1,6.6,0,7.16,7.16,0,0,1,2.5,1.6,7.6,7.6,0,0,1,1.6,2.6,9,9,0,0,1,.6,3.4,9.34,9.34,0,0,1-.6,3.4,7.6,7.6,0,0,1-1.6,2.6,6,6,0,0,1-2.5,1.6,9.38,9.38,0,0,1-6.6,0,7.16,7.16,0,0,1-2.5-1.6,7.6,7.6,0,0,1-1.6-2.6,9,9,0,0,1-.6-3.4,9,9,0,0,1,.6-3.4Z"/><path class="cls-5" d="M136.2,19.8V22h.1a4.51,4.51,0,0,1,2.1-2,6.16,6.16,0,0,1,2.6-.6,7.39,7.39,0,0,1,2.8.5,3.71,3.71,0,0,1,1.7,1.3,6.11,6.11,0,0,1,.9,2,10.9,10.9,0,0,1,.3,2.6v9.5h-4.3V26.5a5.7,5.7,0,0,0-.6-2.9,2.34,2.34,0,0,0-2.1-.9,2.8,2.8,0,0,0-2.5,1,5.85,5.85,0,0,0-.8,3.4v8.1h-4.3V19.8Zm23.6,3.6a2.82,2.82,0,0,0-2.3-.8,4.31,4.31,0,0,0-1.7.3,3.13,3.13,0,0,0-1.1.9,2.38,2.38,0,0,0-.6,1.1,4.4,4.4,0,0,0-.2,1h6.9a4.84,4.84,0,0,0-1-2.5ZM155,31.5a3.93,3.93,0,0,0,2.8.9,3.8,3.8,0,0,0,2.2-.6,2.39,2.39,0,0,0,1.1-1.4h3.8a6.79,6.79,0,0,1-2.8,4,7.94,7.94,0,0,1-4.5,1.2,8.81,8.81,0,0,1-3.3-.6,6.19,6.19,0,0,1-2.5-1.7,7.6,7.6,0,0,1-1.6-2.6,8.81,8.81,0,0,1-.6-3.3,8.29,8.29,0,0,1,.6-3.2,7.6,7.6,0,0,1,1.6-2.6,7.39,7.39,0,0,1,2.5-1.7,8.29,8.29,0,0,1,3.2-.6,7.12,7.12,0,0,1,3.4.8,6.11,6.11,0,0,1,2.4,2.1,9.74,9.74,0,0,1,1.4,2.9,10.18,10.18,0,0,1,.3,3.5H153.8a4.59,4.59,0,0,0,1.2,2.9Z"/><g id="レイヤー_2-2" data-name="レイヤー 2"><g id="レイヤー_1-2-2" data-name="レイヤー 1-2"><path class="cls-5" d="M177.94,26.08c1.56-1.56,4.34-4.79,5.79-6.35A3.06,3.06,0,0,1,186,18.62a3.7,3.7,0,0,1,2.34,1.22A91.55,91.55,0,0,1,198,30.31l-2.23,2.12a93.31,93.31,0,0,0-8.68-10.13c-.45-.45-.78-.78-1-.78s-.56.33-1,.78c-.67.78-4.79,5.68-5,5.9Z"/><path class="cls-5" d="M205.43,19.07v.56c-.11,6.12-.67,11-3.56,14.92a25,25,0,0,0-2.34-1.34c2.78-3.23,3.23-8.79,3.23-14.14Zm5.9,11a12.83,12.83,0,0,0,5.57-7.68,26.63,26.63,0,0,0,2.34,1.45A16.7,16.7,0,0,1,211,33.54c-.56.33-1.11.56-1.22.67l-1.11.56V16.29l2.67.11Z"/><path class="cls-5" d="M221.69,18.29h13.58l2,1.45a.67.67,0,0,1-.11.45c-1.89,7.9-5.45,11.69-11.91,14.25a10.59,10.59,0,0,0-1.67-2.23c5.68-2.12,9.35-5.79,10.35-11.35H221.8V18.29Zm16.25-3.45a2.34,2.34,0,1,1-2.34,2.34,2.23,2.23,0,0,1,2.11-2.34Zm1.45,2.23a1.45,1.45,0,1,0-1.45,1.45A1.45,1.45,0,0,0,239.38,17.06Z"/></g></g></g></g></svg>